<svg viewBox="0 0 122.0 32.0" xmlns="http://www.w3.org/2000/svg" xmlns:xlink="http://www.w3.org/1999/xlink" width="100%" height="100%"><defs><clipPath id="i0"><path d="M8.64091852,0 C11.1763798,0 13.574456,1.10649061 15.2201639,3.03602036 L13.2458972,4.71613074 C12.0939241,3.36559425 10.4154949,2.59114039 8.64091852,2.59114039 C5.306472,2.59114039 2.59350821,5.30094529 2.59350821,8.63250745 C2.59350821,11.9636218 5.306472,14.6734267 8.64091852,14.6734267 C10.4867648,14.6734267 12.2080008,13.847253 13.3637839,12.4058151 L15.3880292,14.0259215 C13.7373908,16.0839672 11.2783541,17.2645671 8.64091852,17.2645671 C3.87636692,17.2645671 0,13.3922978 0,8.63250745 C0,3.87271712 3.87636692,0 8.64091852,0 Z"></path></clipPath><clipPath id="i1"><path d="M7.7475791,0 C12.2548418,0 15.2833655,3.42626988 15.2833655,8.5252616 C15.2833655,8.74288784 15.2833655,8.98894878 15.2526612,9.36106278 L15.2333869,9.59122716 L2.89181096,9.59122716 C3.29141562,12.410293 5.35824355,14.283625 8.11020409,14.283625 C9.96142927,14.283625 11.4693037,13.6081329 12.8554814,12.1570674 L13.0233468,11.9810857 L14.8429711,13.6092523 L14.6753299,13.7957571 C12.8050546,15.8797746 10.7615351,16.8089402 8.04946776,16.8089402 C3.46040156,16.8089402 0,13.1957177 0,8.40413424 C0,3.61277467 3.33086062,0 7.7475791,0 Z M7.55483653,2.46463954 C5.11776357,2.46463954 3.17845951,4.40446848 2.76182179,7.21726522 L12.2617895,7.21726522 C11.9549702,4.87017072 10.575292,2.46463954 7.55483653,2.46463954 Z"></path></clipPath><clipPath id="i2"><path d="M7.92866748,0 C11.7171796,0 14.1652344,2.55195871 14.1652344,6.50191971 L14.1652344,16.445782 L11.3355045,16.445782 L11.3355045,7.0748678 C11.3355045,4.28244553 9.81351055,2.61554498 7.26392972,2.61554498 C4.65316432,2.61554498 2.82950581,4.52402857 2.82950581,7.2564469 L2.82950581,16.445782 L0,16.445782 L0,0.332484531 L2.82950581,0.332484531 L2.82950581,2.48456622 C4.08166018,0.835129495 5.79370729,0 7.92866748,0 Z"></path></clipPath><clipPath id="i3"><path d="M2.9283424,0 L2.9283424,3.38149082 L7.75228561,3.38149082 L7.75228561,5.95628685 L2.9283424,5.95628685 L2.9283424,14.9548631 C2.9283424,16.4348111 3.75489428,17.1241848 5.52879831,17.1241848 C5.98824282,17.1241848 6.32890411,17.0881376 6.86163562,17.012461 L7.164869,19.4352321 C6.10837075,19.6452459 5.29123189,19.739058 4.51712392,19.739058 C1.47739424,19.739058 0,18.0719336 0,14.6425292 L0,2.27365684 L2.9283424,0 Z"></path></clipPath><clipPath id="i4"><path d="M2.82950581,0 L2.82950581,16.1135213 L0,16.1135213 L0,0 L2.82950581,0 Z"></path></clipPath><clipPath id="i5"><path d="M18.1462651,0 C21.8809886,0 24.2010713,2.50292564 24.2010713,6.53169779 L24.2010713,16.445782 L21.3715655,16.445782 L21.3715655,7.0748678 C21.3715655,4.2410249 19.9860602,2.61554498 17.5718474,2.61554498 C15.5449127,2.61554498 13.4998243,4.03190669 13.4998243,7.19621906 L13.4998243,16.445782 L10.701247,16.445782 L10.701247,7.01553555 C10.701247,4.2602799 9.29198501,2.61554498 6.93178495,2.61554498 C4.55500008,2.61554498 2.83017816,4.5797785 2.83017816,7.28644887 L2.83017816,16.445782 L0,16.445782 L0,0.332484531 L2.83017816,0.332484531 L2.83017816,2.4283685 C3.78627098,1.19134693 5.20494597,0 7.62700294,0 C9.84869728,0 11.6246184,1.0162608 12.6726001,2.87414405 C14.0529507,0.941031975 15.8479219,0 18.1462651,0 Z"></path></clipPath><clipPath id="i6"><path d="M7.74780322,0 C12.2550659,0 15.2831414,3.42626988 15.2831414,8.5252616 C15.2831414,8.74288784 15.2831414,8.98894878 15.2519888,9.36106278 L15.2327145,9.59122716 L2.89181096,9.59122716 C3.29119151,12.410293 5.35757119,14.283625 8.10975585,14.283625 C9.96142927,14.283625 11.4695278,13.6081329 12.8559297,12.1570674 L13.0233468,11.9810857 L14.8422988,13.6092523 L14.6751058,13.7957571 C12.8050546,15.8797746 10.7626557,16.8089402 8.05036424,16.8089402 C3.46062567,16.8089402 0,13.1957177 0,8.40413424 C0,3.61277467 3.3306365,0 7.74780322,0 Z M7.6870669,2.46463954 C5.24887334,2.46463954 3.31046576,4.40514016 2.89405216,7.21726522 L12.3933475,7.21726522 C12.0865282,4.87017072 10.70685,2.46463954 7.6870669,2.46463954 Z"></path></clipPath><clipPath id="i7"><path d="M2.00140944,0 C2.36222692,0 2.69767442,0.0886216878 3.00775194,0.265865063 C3.31782946,0.443108439 3.56072351,0.685816076 3.73643411,0.993987975 C3.91214471,1.30215988 4,1.63616121 4,1.99599198 C4,2.34691606 3.91543341,2.67557337 3.74630022,2.98196393 C3.57716702,3.28835448 3.33709185,3.5346248 3.0260747,3.72077488 C2.71505755,3.90692496 2.37350247,4 2.00140944,4 C1.63119568,4 1.29058022,3.90781563 0.979563077,3.72344689 C0.668545925,3.53907815 0.427531126,3.2936985 0.256518675,2.98730794 C0.0855062251,2.68091739 0,2.35047874 0,1.99599198 C0,1.63616121 0.0878552973,1.30215988 0.263565891,0.993987975 C0.439276486,0.685816076 0.682640357,0.443108439 0.993657502,0.265865063 C1.30467465,0.0886216878 1.64059196,0 2.00140944,0 Z M2.00140944,0.320641282 C1.70072821,0.320641282 1.42071882,0.394121576 1.16138126,0.541082164 C0.902043693,0.688042752 0.697674419,0.891560899 0.548273433,1.1516366 C0.398872445,1.41171231 0.324171952,1.6931641 0.324171952,1.99599198 C0.324171952,2.30238254 0.39934226,2.58606101 0.549682875,2.84702739 C0.700023491,3.10799376 0.904392765,3.31240258 1.16279069,3.46025384 C1.42118863,3.6081051 1.70072821,3.68203073 2.00140944,3.68203073 C2.30396993,3.68203073 2.58491896,3.60676909 2.84425652,3.45624582 C3.10359408,3.30572256 3.30702373,3.10131373 3.45454546,2.84301937 C3.60206718,2.58472501 3.67582805,2.30238254 3.67582805,1.99599198 C3.67582805,1.69138277 3.60206718,1.41037631 3.45454546,1.15297261 C3.30702373,0.895568915 3.10359408,0.692496103 2.84425652,0.543754174 C2.58491896,0.395012247 2.30396993,0.320641282 2.00140944,0.320641282 Z M1.96758281,0.830995323 C2.25510923,0.830995323 2.47827108,0.889334223 2.63706836,1.00601202 C2.79586564,1.12268982 2.87526427,1.2923625 2.87526427,1.51503006 C2.87526427,1.73413494 2.75499178,1.90158094 2.5144468,2.01736807 C2.74371623,2.10643509 2.85929058,2.28813182 2.86116984,2.56245825 L2.86116984,2.7254509 C2.86116984,2.87864618 2.87714353,2.98908929 2.90909091,3.05678023 L2.90909091,3.0995324 L2.50035236,3.0995324 C2.47404275,3.03540414 2.46088795,2.92095302 2.46088795,2.75617903 C2.46088795,2.59140503 2.45806906,2.49387664 2.45243129,2.46359386 C2.42236316,2.29258517 2.29927179,2.20351814 2.08315715,2.19639278 L1.58703312,2.19639278 L1.58703312,3.0995324 L1.18957012,3.0995324 L1.18957012,0.830995323 L1.96758281,0.830995323 Z M1.97603947,1.17034068 L1.58703312,1.17034068 L1.58703312,1.85437541 L2.02677942,1.85437541 C2.16208597,1.85081274 2.27108292,1.81963928 2.35377026,1.76085504 C2.4364576,1.70207081 2.47780127,1.6245825 2.47780127,1.52839011 C2.47780127,1.39835225 2.44115575,1.30616789 2.36786469,1.251837 C2.29457364,1.19750612 2.16396524,1.17034068 1.97603947,1.17034068 Z"></path></clipPath><clipPath id="i8"><path d="M13.085876,0 L13.085876,10.171116 L9.63399101,10.171116 L9.63399101,6.7791021 L5.2692682,10.171116 L0,10.171116 L13.085876,0 Z"></path></clipPath></defs><g transform="translate(0.0 14.05379646535659)"><g clip-path="url(#i0)"><polygon points="0,0 15.3880292,0 15.3880292,17.2645671 0,17.2645671 0,0" stroke="none" fill="#1CA3A8"></polygon></g></g><g transform="translate(17.57025613251409 14.379676084524064)"><g clip-path="url(#i1)"><polygon points="0,0 15.2833655,0 15.2833655,16.8089402 0,16.8089402 0,0" stroke="none" fill="#1CA3A8"></polygon></g></g><g transform="translate(36.098711799307715 14.379989537953936)"><g clip-path="url(#i2)"><polygon points="0,0 14.1652344,0 14.1652344,16.445782 0,16.445782 0,0" stroke="none" fill="#1CA3A8"></polygon></g></g><g transform="translate(54.5400074813324 11.366269149193378)"><g clip-path="url(#i3)"><polygon points="0,0 7.75228561,0 7.75228561,19.739058 0,19.739058 0,0" stroke="none" fill="#1CA3A8"></polygon></g></g><g transform="translate(65.80590056021104 14.712362121020888)"><g clip-path="url(#i4)"><polygon points="0,0 2.82950581,0 2.82950581,16.1135213 0,16.1135213 0,0" stroke="none" fill="#1CA3A8"></polygon></g></g><g transform="translate(73.58716479057742 14.379989537953936)"><g clip-path="url(#i5)"><polygon points="0,0 24.2010713,0 24.2010713,16.445782 0,16.445782 0,0" stroke="none" fill="#1CA3A8"></polygon></g></g><g transform="translate(100.95997204117802 14.379676084524064)"><g clip-path="url(#i6)"><polygon points="0,0 15.2831414,0 15.2831414,16.8089402 0,16.8089402 0,0" stroke="none" fill="#1CA3A8"></polygon></g></g><g transform="translate(117.10751703924224 14.379676084524064)"><g clip-path="url(#i7)"><polygon points="0,0 4,0 4,4 0,4 0,0" stroke="none" fill="#1CA3A8"></polygon></g></g><g transform="translate(59.001460175603476 0.0)"><g clip-path="url(#i8)"><polygon points="0,0 13.085876,0 13.085876,10.171116 0,10.171116 0,0" stroke="none" fill="#FDC231"></polygon></g></g></svg>